<svg width="21" height="21" viewBox="0 0 21 21" fill="none" xmlns="http://www.w3.org/2000/svg">
<circle cx="10.5" cy="10.5" r="10.5" fill="#FF6767"/>
<path d="M10 13.488C10 13.192 10.1 12.944 10.3 12.744C10.508 12.544 10.756 12.444 11.044 12.444C11.332 12.444 11.576 12.544 11.776 12.744C11.976 12.944 12.076 13.192 12.076 13.488C12.076 13.776 11.976 14.024 11.776 14.232C11.576 14.432 11.332 14.532 11.044 14.532C10.756 14.532 10.508 14.432 10.3 14.232C10.1 14.024 10 13.776 10 13.488ZM11.692 11.604H10.384L10.012 6H12.076L11.692 11.604Z" fill="white"/>
</svg>
