<svg width="122" height="123" viewBox="0 0 122 123" fill="none" xmlns="http://www.w3.org/2000/svg">
<path d="M61 16.2031C86.2133 16.2031 106.727 36.7172 106.727 61.9305C106.727 87.1438 86.2133 107.658 61 107.658L61 85.7883C74.1941 85.7883 84.8578 75.1246 84.8578 61.9305C84.8578 48.7364 74.1941 38.0728 61 38.0728L61 16.2031Z" fill="#52E2F2"/>
<path d="M15.2729 16.2031C40.4863 16.2031 61.0003 36.7172 61.0003 61.9305C61.0003 87.1438 40.4863 107.658 15.2729 107.658L15.2729 85.7883C28.467 85.7883 39.1307 75.1246 39.1307 61.9305C39.1307 48.7364 28.467 38.0728 15.2729 38.0728L15.2729 16.2031Z" fill="#FBB03B"/>
</svg>
