<svg width="123" height="123" viewBox="0 0 123 123" fill="none" xmlns="http://www.w3.org/2000/svg">
<path d="M61.5 107.656C36.2867 107.656 15.7726 87.1422 15.7726 61.9289C15.7726 36.7155 36.2867 16.2014 61.5 16.2014L61.5 38.0711C48.3059 38.0711 37.6422 48.7348 37.6422 61.9289C37.6422 75.1229 48.3059 85.7866 61.5 85.7866L61.5 107.656Z" fill="#FF8AAB"/>
<path d="M107.227 107.656C82.0137 107.656 61.4997 87.1422 61.4997 61.9289C61.4997 36.7155 82.0137 16.2014 107.227 16.2014L107.227 38.0711C94.033 38.0711 83.3693 48.7348 83.3693 61.9289C83.3693 75.1229 94.033 85.7866 107.227 85.7866L107.227 107.656Z" fill="#52E2F2"/>
</svg>
